<svg id="Layer_1" viewBox="0 0 512 512" xmlns="http://www.w3.org/2000/svg" data-name="Layer 1"><path d="m401.28 286.9a21.005 21.005 0 1 1 -21.019-21h.021a21.024 21.024 0 0 1 21 21zm-.015-67.015v16.646a21 21 0 1 1 -41.995 0v-16.646a45.671 45.671 0 0 1 31.872-43.653 34.831 34.831 0 0 0 14.232-8.717 35.51 35.51 0 1 0 -60.614-25.077 21 21 0 1 1 -42 0 77.5 77.5 0 1 1 101.166 73.8 3.528 3.528 0 0 0 -2.665 3.644zm-77.065 181.399c48.454-3.216 106.832-7 143.118-11.575a16.259 16.259 0 0 0 -9.616-7.93l-5.609-1.643-107.9-12.86c-5.165 4.929-13.7 9.859-27.2 9.859-1.057 0-2.151-.072-3.265-.143-11.653-.643-25.342-4.644-41.846-12.217a29.746 29.746 0 0 1 -3.615-2.143l-73.131-53.513a20.987 20.987 0 1 1 24.8-33.865l71.381 52.227a118.688 118.688 0 0 0 18.318 6.573c-2.829-5.359-7.952-12.646-16.289-20.5-9.389-8.859-17.662-17.647-25.649-26.22-29.093-31.008-45.711-47.011-76.961-44.082a18.5 18.5 0 0 1 -1.979.071h-59.757v76.447h16.369a20.76 20.76 0 0 1 13.874 5.287c24.091 21.147 43.589 35.722 62.443 49.725 11.653 8.717 22.648 16.861 33.772 26.006a17.72 17.72 0 0 0 13.57 4.212c15.332-1.144 34.679-2.429 55.17-3.715zm145.283-59.8-7.28-2.143a18.738 18.738 0 0 0 -3.408-.715l-107.077-12.789c-4.558-13.86-14.6-28.72-29.549-42.8-8.445-8-16.283-16.361-23.849-24.434-28.5-30.364-57.97-61.8-110.511-57.228h-58.871a20.948 20.948 0 0 0 -20.938-19.785h-87.008a20.975 20.975 0 0 0 -21.005 21v158.327a20.975 20.975 0 0 0 21.005 21.005h87.008a20.962 20.962 0 0 0 20.962-20.148h8.538c22.72 19.648 41.96 33.937 59.093 46.725 11.259 8.359 21.89 16.29 32.279 24.792a59.987 59.987 0 0 0 38.437 13.789q2.454 0 4.915-.215c15.111-1.143 34.351-2.357 54.72-3.715 58.828-3.858 132.031-8.644 166.146-14.86a21.015 21.015 0 0 0 15.332-11.932c5.43-11.859 4.672-27.72-2.036-42.366-7.405-16.219-20.508-27.721-36.905-32.508z" fill-rule="evenodd"/></svg>