<svg enable-background="new 0 0 100 100" viewBox="0 0 100 100" xmlns="http://www.w3.org/2000/svg"><pattern id="New_Pattern_Swatch_10" height="43.239" overflow="visible" patternUnits="userSpaceOnUse" viewBox="0 -43.239 43.239 43.239" width="43.239" x="34" y="-296"><g><path d="m0-43.239h43.239v43.239h-43.239z" fill="none"/><path d="m0-43.239h43.239v43.239h-43.239z" fill="#009dff"/></g></pattern><pattern id="New_Pattern_Swatch_13" height="32.352" overflow="visible" patternUnits="userSpaceOnUse" viewBox="0 -32.352 32.352 32.352" width="32.352" x="34" y="-296"><g><path d="m0-32.352h32.352v32.352h-32.352z" fill="none"/><path d="m0-32.352h32.352v32.352h-32.352z" fill="#00117d"/></g></pattern><pattern id="New_Pattern_Swatch_9" height="43.239" overflow="visible" patternUnits="userSpaceOnUse" viewBox="0 -43.239 43.239 43.239" width="43.239" x="34" y="-296"><g><path d="m0-43.239h43.239v43.239h-43.239z" fill="none"/><path d="m0-43.239h43.239v43.239h-43.239z" fill="#4bc6ff"/></g></pattern><g id="Layer_5"><g><path d="m79.843 32.365c2.481 0 4.5-2.019 4.5-4.5v-14.624c0-2.481-2.019-4.5-4.5-4.5h-59.685c-2.481 0-4.5 2.019-4.5 4.5v14.624c0 2.481 2.019 4.5 4.5 4.5h28.342v5.822h-28.342c-2.481 0-4.5 2.019-4.5 4.5v14.625c0 2.481 2.019 4.5 4.5 4.5h28.342v5.822h-28.342c-2.481 0-4.5 2.019-4.5 4.5v14.624c0 2.481 2.019 4.5 4.5 4.5h59.685c2.481 0 4.5-2.019 4.5-4.5v-14.623c0-2.481-2.019-4.5-4.5-4.5h-28.343v-5.822h28.343c2.481 0 4.5-2.019 4.5-4.5v-14.625c0-2.481-2.019-4.5-4.5-4.5h-28.343v-5.822h28.343zm0 38.27c.827 0 1.5.673 1.5 1.5v14.624c0 .827-.673 1.5-1.5 1.5h-59.685c-.827 0-1.5-.673-1.5-1.5v-14.624c0-.827.673-1.5 1.5-1.5zm0-29.447c.827 0 1.5.673 1.5 1.5v14.625c0 .827-.673 1.5-1.5 1.5h-59.685c-.827 0-1.5-.673-1.5-1.5v-14.625c0-.827.673-1.5 1.5-1.5zm-59.685-11.823c-.827 0-1.5-.673-1.5-1.5v-14.624c0-.827.673-1.5 1.5-1.5h59.685c.827 0 1.5.673 1.5 1.5v14.624c0 .827-.673 1.5-1.5 1.5z"/><path d="m72.337 18.047c-1.382 0-2.506 1.125-2.506 2.507s1.124 2.506 2.506 2.506 2.506-1.124 2.506-2.506-1.124-2.507-2.506-2.507z"/><path d="m62.319 18.047c-1.382 0-2.506 1.125-2.506 2.507s1.124 2.506 2.506 2.506 2.506-1.124 2.506-2.506-1.124-2.507-2.506-2.507z"/><path d="m52.302 18.047c-1.382 0-2.506 1.125-2.506 2.507s1.124 2.506 2.506 2.506 2.506-1.124 2.506-2.506-1.124-2.507-2.506-2.507z"/><path d="m41.654 19.054h-14.997c-.829 0-1.5.672-1.5 1.5s.671 1.5 1.5 1.5h14.997c.829 0 1.5-.672 1.5-1.5s-.671-1.5-1.5-1.5z"/><circle cx="72.337" cy="50" r="2.506"/><circle cx="62.319" cy="50" r="2.506"/><circle cx="52.302" cy="50" r="2.506"/><path d="m26.657 51.5h14.997c.829 0 1.5-.672 1.5-1.5s-.671-1.5-1.5-1.5h-14.997c-.829 0-1.5.672-1.5 1.5s.672 1.5 1.5 1.5z"/><path d="m72.337 81.953c1.382 0 2.506-1.125 2.506-2.507s-1.124-2.506-2.506-2.506-2.506 1.124-2.506 2.506 1.124 2.507 2.506 2.507z"/><path d="m62.319 81.953c1.382 0 2.506-1.125 2.506-2.507s-1.124-2.506-2.506-2.506-2.506 1.124-2.506 2.506 1.125 2.507 2.506 2.507z"/><path d="m52.302 81.953c1.382 0 2.506-1.125 2.506-2.507s-1.124-2.506-2.506-2.506-2.506 1.124-2.506 2.506 1.124 2.507 2.506 2.507z"/><path d="m26.657 80.946h14.997c.829 0 1.5-.672 1.5-1.5s-.671-1.5-1.5-1.5h-14.997c-.829 0-1.5.672-1.5 1.5s.672 1.5 1.5 1.5z"/></g></g></svg>