<svg id="Layer_1" enable-background="new 0 0 512 512" viewBox="0 0 512 512" xmlns="http://www.w3.org/2000/svg" xmlns:xlink="http://www.w3.org/1999/xlink"><linearGradient id="SVGID_1_" gradientUnits="userSpaceOnUse" x1="256" x2="256" y1="485.375" y2="26.626"><stop offset="0" stop-color="#e93528"/><stop offset="1" stop-color="#f8bc16"/></linearGradient><path d="m85.38 353.626h-69.38c-8.837 0-16 7.164-16 16v99.749c0 8.836 7.163 16 16 16h69.38c8.837 0 16-7.164 16-16v-99.749c0-8.836-7.163-16-16-16zm-16 99.749h-37.38v-67.749h37.38zm426.62-426.75h-69.38c-8.837 0-16 7.164-16 16v426.749c0 8.836 7.163 16 16 16h69.38c8.837 0 16-7.164 16-16v-426.749c0-8.836-7.163-16-16-16zm-16 426.75h-37.38v-394.75h37.38zm-257.747-208.749h-69.379c-8.837 0-16 7.164-16 16v208.749c0 8.836 7.163 16 16 16h69.379c8.837 0 16-7.164 16-16v-208.749c0-8.836-7.163-16-16-16zm-16 208.749h-37.379v-176.749h37.379zm152.873-317.749h-69.379c-8.837 0-16 7.164-16 16v317.749c0 8.836 7.163 16 16 16h69.379c8.837 0 16-7.164 16-16v-317.749c0-8.836-7.163-16-16-16zm-16 317.749h-37.379v-285.749h37.379z" fill="url(#SVGID_1_)"/></svg>